PathFileType	4	(X/Y/Z)	D:\TRACE\spotREDO_2-26-24\spot_justArm_Motion_2_1-v60.trc
DataRate	CameraRate	NumFrames	NumMarkers	Units	OrigDataRate	OrigDataStartFrame	OrigNumFrames
100.00	100.00	      38	9	mm	100.00	1	      7000
Frame#	Time	front left toe			Front right toe			aft left toe			aft right toe			Arm			FL body			FR body			AL Body			AR Body			
		X1	Y1	Z1	X2	Y2	Z2	X3	Y3	Z3	X4	Y4	Z4	X5	Y5	Z5	X6	Y6	Z6	X7	Y7	Z7	X8	Y8	Z8	X9	Y9	Z9	

1	0.000	-202.45140	21.81010	-189.15671	222.81209	20.00257	-116.74760	-309.13361	22.62128	428.38336	117.51340	22.47766	439.12207	63.46219	670.16803	-346.11871	-24.54443	411.83722	-320.97488	129.81030	416.46887	-298.29559	-163.11394	473.58142	549.70386	-16.50141	473.47089	573.75195	
2	0.010	-202.50647	21.73958	-189.24355	222.82472	20.01197	-116.79871	-309.12299	22.59024	428.35654	117.42244	22.54825	438.99973	62.73454	674.37048	-344.94583	-25.04074	416.23624	-319.95050	129.12866	420.80859	-297.14679	-163.65692	476.47736	550.79468	-16.87538	476.67880	574.86157	
3	0.020	-202.60847	21.65228	-189.24756	222.46310	19.51645	-117.20053	-309.08398	22.68920	428.25934	117.58530	22.71488	438.89407	62.01831	678.90912	-343.63904	-25.48766	420.49878	-318.82590	128.90268	425.38791	-296.20303	-164.19138	479.83060	552.03943	-17.16687	480.09525	575.89050	
4	0.030	-202.69557	21.60286	-189.44211	222.61842	20.06451	-116.93879	-309.06842	22.59834	428.13492	117.67744	22.74636	438.70532	61.28368	683.54431	-341.91327	-26.00270	424.94183	-317.62909	128.48358	430.05969	-294.96875	-164.77643	483.31192	553.13098	-17.88972	483.65970	577.19171	
5	0.040	-202.69704	21.39388	-189.59164	222.84334	19.76127	-117.35950	-309.15881	22.50595	428.08389	117.88830	22.91340	438.64313	60.50109	688.28613	-340.75885	-26.37651	429.58942	-316.56226	127.76857	434.68436	-293.95407	-165.16312	486.67664	554.36780	-18.33591	487.26910	578.39496	
6	0.050	-202.73911	21.24644	-189.74959	222.84190	19.81008	-117.64133	-309.09692	22.26195	427.99481	117.92681	22.96194	438.52853	59.78374	693.03705	-339.47449	-26.83632	434.19211	-315.33658	127.35542	439.42734	-292.98102	-165.76537	490.31070	555.57758	-18.86108	490.85812	579.49249	
7	0.060	-202.75778	21.15320	-189.81862	222.87833	19.91514	-117.82650	-309.20468	22.13619	427.99115	117.90574	22.87672	438.41202	59.31267	697.99432	-337.93414	-27.25854	439.16049	-314.28989	126.80186	444.57172	-291.89340	-166.16539	493.75308	556.52020	-19.43783	494.72717	580.63300	
8	0.070	-202.74965	21.17147	-189.89372	222.71506	20.07020	-118.02406	-309.20377	22.10250	427.95425	117.85102	22.91642	438.29852	58.45201	703.27405	-336.54590	-27.71401	444.17905	-313.26724	126.48756	449.82956	-290.58218	-166.73296	497.69263	557.73871	-19.25909	498.69574	581.95276	
9	0.080	-202.75758	21.18973	-189.99359	222.71605	20.12546	-118.15250	-309.27612	22.12619	427.79916	117.77913	22.85844	438.09167	57.76057	708.48016	-335.29303	-28.11756	449.33389	-312.33673	125.85986	454.93155	-289.79126	-167.31828	501.62119	558.75476	-19.67811	502.39413	582.77124	
10	0.090	-202.83391	21.15630	-190.02493	222.67728	20.09386	-118.40168	-309.36450	22.08216	427.64673	117.82211	23.01988	437.81815	57.01788	713.56012	-333.88766	-28.60774	454.44421	-311.22153	125.64101	460.06052	-288.51456	-168.06528	505.55731	559.87750	-21.07276	506.67368	583.83337	
11	0.100	-202.85841	21.12215	-190.12042	222.32272	19.86873	-118.78773	-309.48001	22.02549	427.53751	117.89902	23.08102	437.65338	56.20086	718.68237	-332.48511	-29.07259	459.45389	-310.24628	125.24947	465.37231	-287.56955	-168.44589	509.52393	560.90662	-21.35714	510.79004	585.29944	
12	0.110	-202.82863	21.13523	-190.29526	222.40201	19.88757	-118.88760	-309.38593	21.95046	427.45316	117.97889	23.17784	437.44098	55.51576	724.05103	-331.47073	-29.51022	464.60980	-309.21762	124.66684	470.53918	-286.61981	-169.06631	513.40320	561.89154	-23.26430	515.03204	585.91882	
13	0.120	-202.89793	21.01270	-190.26782	222.89505	20.78233	-118.38523	-309.37149	21.89970	427.41028	117.86985	23.12181	437.14679	54.92519	729.42816	-329.98282	-29.91460	469.70099	-308.39182	124.13499	475.73962	-285.54196	-169.54620	517.41577	562.98743	-23.14075	519.02655	587.06946	
14	0.130	-203.33725	21.68078	-190.67548	222.87294	20.83762	-118.55433	-309.33801	21.94821	427.27493	117.86187	23.21582	436.98459	54.44912	734.57751	-328.92151	-30.40895	474.78735	-307.38303	123.89764	481.09180	-284.53622	-170.01007	521.44830	563.87543	-23.20865	523.14978	588.04913	
15	0.140	-203.44417	21.84952	-191.09389	222.65083	20.41990	-119.19944	-309.37067	21.91278	427.15466	117.73645	23.17367	436.86053	53.60452	739.67664	-327.67581	-30.80217	480.03397	-306.55121	123.40975	486.20728	-283.72263	-170.80753	525.42834	564.71600	-23.63975	527.21643	589.31232	
16	0.150	-203.51883	21.90883	-191.44427	222.72327	20.74498	-119.08656	-309.36588	21.86163	426.94553	117.62482	23.20779	436.68958	53.26900	744.69897	-326.31931	-31.30438	485.04974	-305.67136	123.04999	491.23340	-282.71429	-171.23697	529.35181	566.03418	-24.36426	531.20532	590.02576	
17	0.160	-203.53862	21.68936	-191.82233	222.47984	20.15855	-119.73700	-309.36716	21.76745	426.90427	117.55643	23.29207	436.40875	52.33308	749.69928	-325.31372	-31.68914	489.74268	-304.76712	122.64004	496.20779	-281.76123	-171.75108	533.35870	566.66571	-24.90782	535.09741	590.76208	
18	0.170	-203.61993	21.60959	-192.01305	222.45953	20.22391	-119.91180	-309.27469	21.66932	426.81238	117.52723	23.34260	436.13162	51.97705	754.53387	-324.15234	-32.00024	494.60443	-303.89075	122.24806	501.17703	-280.88843	-172.58128	536.98584	567.30670	-25.61105	539.09979	591.75336	
19	0.180	-203.64098	21.59524	-192.11984	222.57724	20.29212	-120.07610	-309.31821	21.74876	426.56577	117.48102	23.35028	436.05231	51.50205	759.29260	-322.82465	-32.38358	499.30664	-303.12482	121.93971	505.96533	-279.95166	-172.95822	540.90369	568.46497	-26.22971	542.92358	592.63806	
20	0.190	-203.55925	21.54804	-192.24631	222.55385	20.29139	-120.22198	-309.33478	21.78269	426.26028	117.48705	23.32412	435.86084	51.10182	764.09717	-321.79333	-32.83945	503.91418	-302.21716	121.35847	510.60086	-279.29700	-173.39107	544.47974	569.32715	-26.69806	546.55743	593.46399	
21	0.200	-203.35022	21.36968	-192.38835	222.67175	20.40577	-120.28001	-309.31628	21.84977	426.06952	117.76624	23.20158	435.42923	50.47567	768.69885	-320.69876	-33.16085	508.47711	-301.45874	121.46019	515.04120	-278.29062	-174.00375	547.89240	569.97205	-27.38659	550.12347	594.29688	
22	0.210	-202.97276	20.88331	-192.43951	223.02420	20.53683	-120.39743	-309.43719	21.71213	425.94073	117.88215	23.40496	435.34628	50.14318	772.86194	-319.70657	-33.62330	512.83167	-300.79489	121.07874	519.33002	-277.51053	-174.71860	551.18140	570.67047	-27.81968	553.50110	595.05792	
23	0.220	-202.98849	20.96031	-192.66803	222.99046	20.58870	-120.58730	-309.50851	21.62514	425.76166	117.79704	23.43680	435.23068	49.36757	777.11737	-318.73996	-33.86204	517.02393	-300.10501	119.91258	523.67755	-276.97012	-175.20349	554.50897	571.62024	-28.45687	556.70770	595.56262	
24	0.230	-203.02232	21.00646	-192.87180	223.01544	20.71492	-120.74972	-309.60260	21.63450	425.64273	117.79382	23.47422	435.15533	48.86563	781.11401	-318.01581	-34.26023	520.68475	-299.32117	119.62070	527.64838	-276.31018	-175.51700	557.42938	572.08826	-28.70037	559.72321	596.82703	
25	0.240	-202.95041	20.91203	-192.94846	223.01085	20.72532	-121.07454	-309.64468	21.70320	425.50510	117.79727	23.53677	434.97076	48.91849	784.88324	-316.77936	-34.68549	524.69232	-298.67865	119.12875	531.58466	-275.64316	-176.13748	560.42889	572.96661	-29.29411	562.80780	597.34631	
26	0.250	-202.91931	20.99272	-193.17279	223.06465	20.79010	-121.27016	-309.66913	21.67137	425.42456	117.78830	23.56140	434.78818	47.75887	788.69684	-316.16367	-35.08046	528.24786	-298.08426	118.96704	535.11810	-274.93198	-176.72981	563.17133	573.54065	-29.63174	565.47882	597.86896	
27	0.260	-202.99576	20.97146	-193.37599	223.06451	20.79976	-121.37955	-309.64380	21.56805	425.32187	117.81094	23.53980	434.67096	47.57703	791.96136	-315.15176	-35.31838	531.61951	-297.28467	118.46977	538.56165	-274.16113	-176.93675	565.61475	574.19977	-30.23447	567.92297	598.56940	
28	0.270	-203.12276	20.92674	-193.50850	223.09267	20.88438	-121.51959	-309.69638	21.49710	425.23837	117.77244	23.49653	434.57733	47.15197	795.14532	-314.37631	-35.64323	534.61377	-296.73224	118.06717	541.72650	-273.70792	-177.50581	567.93298	574.88239	-30.64883	570.32220	599.04175	
29	0.280	-203.24266	20.93104	-193.67683	222.85562	20.79268	-121.76634	-309.61575	21.22839	424.86951	117.74721	23.48762	434.41824	46.82529	798.16418	-313.68304	-35.95780	537.68353	-296.33173	117.87228	544.64856	-273.09467	-178.09563	569.98999	575.31055	-31.24059	572.46539	600.00299	
30	0.290	-203.37404	21.03372	-193.84761	222.76198	21.03087	-121.75487	-309.64578	21.36351	425.09479	117.69953	23.52043	434.31580	46.38190	800.98285	-312.79871	-36.01139	540.28882	-295.47546	117.37308	547.43604	-272.42819	-178.48703	571.84308	575.85730	-31.81950	574.37701	600.38080	
31	0.300	-203.44237	21.09414	-193.98253	222.83690	20.84775	-121.87257	-309.66687	21.43811	425.05524	117.69145	23.61641	434.20663	46.09126	803.46387	-311.94504	-36.44859	542.77563	-295.13934	117.22531	550.01129	-272.02951	-178.90717	573.67999	576.25684	-32.12560	576.12616	600.88043	
32	0.310	-203.46788	21.03903	-194.13918	222.79410	21.02012	-121.83479	-309.74625	21.37659	424.94571	117.70531	23.63978	434.15787	45.80343	805.76129	-311.06277	-36.87067	545.10303	-294.58893	116.91467	552.37787	-271.56116	-179.50441	575.17090	576.74579	-32.59176	577.73822	601.36017	
33	0.320	-203.44109	20.93762	-194.26823	222.76447	20.98956	-121.88255	-309.77795	21.32146	424.88336	117.69106	23.63868	434.11368	45.44627	807.80804	-310.43646	-37.06315	547.23663	-294.29581	116.60008	554.46265	-270.95468	-179.85435	576.53052	577.36682	-32.79599	578.93604	602.01715	
34	0.330	-203.61182	20.93215	-194.29704	222.80634	20.99414	-121.89510	-309.71899	21.20901	424.84409	117.68533	23.69869	433.93436	45.03085	809.69598	-309.94943	-37.36584	549.02527	-293.71680	116.26765	556.19751	-270.35925	-180.24377	577.53094	577.76599	-33.50011	580.20197	602.48395	
35	0.340	-203.56422	20.86427	-194.35741	222.79129	20.75556	-122.11099	-309.72714	21.19345	424.81885	117.67715	23.74119	433.93262	44.77449	811.33185	-309.11267	-37.81432	550.45984	-293.32187	116.07780	557.80475	-270.01013	-180.55313	578.34961	578.20520	-33.68964	581.03107	602.88794	
36	0.350	-203.58514	20.87315	-194.36790	222.75343	21.02884	-122.02003	-309.76624	21.21431	424.76630	117.68115	23.74172	433.90063	44.25966	812.65564	-308.83139	-38.01261	551.95135	-292.85294	115.62714	558.92065	-269.59738	-180.95982	579.23834	578.73181	-33.96685	581.56970	603.23090	
37	0.360	-203.66673	20.93415	-194.37837	222.65617	20.88083	-122.17365	-309.75940	21.23745	424.78345	117.68729	23.77361	433.89029	44.03849	813.73779	-308.21432	-38.49670	553.11133	-292.51361	115.49605	560.24414	-269.20688	-181.37563	579.65680	578.98431	-34.62763	581.96863	603.50177	
38	0.370	-203.68987	20.86744	-194.42268	222.76132	20.85063	-122.14019	-309.79053	21.19399	424.76331	117.68172	23.77035	433.83704	43.66841	814.54706	-307.49460	-38.69511	554.06500	-292.30136	115.16499	560.94946	-268.94324	-181.87379	579.84930	579.17291	-34.61232	582.11572	604.31104	
